<?xml version="1.0" encoding="utf-8"?>
<svg version="1.1" id="Logo_with_clear_space" x="0px" y="0px" viewBox="100.912 0 572.45 302.85" style="enable-background:new 0 0 783.63 302.85;" xmlns="http://www.w3.org/2000/svg">
  <style type="text/css">
	.st0{fill:none;}
</style>
  <rect id="Clear_space_1_" x="65" y="25.12" class="st0" width="653.63" height="252.61"/>
  <path id="Logo" d="M272.35,166.87c0.13,5.49,1.47,9.18,4.02,11.07c2.55,1.89,7.15,2.84,13.81,2.84c6.01,0,12.54,0,19.59,0 c7.05,0,13.45-0.13,19.2-0.39l-4.9,26.83c-5.88,0.13-11.85,0.23-17.92,0.29c-6.07,0.06-12.63,0.1-19.69,0.1 c-9.27,0-17.04-0.88-23.31-2.64c-6.27-1.76-11.33-4.54-15.18-8.32c-3.85-3.79-6.63-8.62-8.32-14.49c-1.7-5.88-2.55-12.93-2.55-21.15 v-10.77c0-8.62,0.91-15.99,2.74-22.13c1.83-6.14,4.77-11.23,8.81-15.28c4.05-4.05,9.24-7.02,15.57-8.91 c6.33-1.89,13.94-2.84,22.82-2.84c16.45,0,28.43,3.23,35.94,9.7c7.51,6.46,11.26,16.42,11.26,29.87v4.31 c0,4.05-0.26,7.48-0.78,10.28c-0.52,2.81-1.5,5.06-2.94,6.76c-1.44,1.7-3.36,2.94-5.78,3.72c-2.42,0.78-5.52,1.17-9.3,1.17H272.35z M288.59,126.72c-2.74,0-6.61,0.26-8.51,0.78c-1.89,0.52-3.43,1.44-4.6,2.74c-1.17,1.31-2.42,3.1-2.88,5.32 c-0.46,2.22-1.16,5.06-1.16,8.58h32.03c-0.13-6.92-1.63-11.56-3.72-13.91C297.65,127.89,294.07,126.72,288.59,126.72z M347.2,61.69 h36.63v145.53H347.2V61.69z M502.56,160.8c0,9.53-0.98,17.47-2.94,23.8c-1.96,6.33-4.87,11.43-8.72,15.28 c-3.85,3.85-8.59,6.6-14.2,8.23c-5.61,1.63-12.08,2.45-19.39,2.45c-4.96,0-9.18-0.43-12.63-1.27c-3.46-0.85-6.5-1.99-9.11-3.43 v35.65h-36.63v-92.45c0-8.62,0.98-15.99,2.94-22.13c1.96-6.14,5.06-11.1,9.3-14.89c4.24-3.79,9.7-6.56,16.36-8.32 c6.66-1.76,14.69-2.64,24.09-2.64c9.01,0,16.71,0.85,23.11,2.55c6.4,1.7,11.66,4.47,15.77,8.32c4.11,3.85,7.15,8.95,9.11,15.28 c1.96,6.33,2.94,14.14,2.94,23.41V160.8z M450.65,182.15c2.87,0,5.29-0.26,7.25-0.78c1.96-0.52,3.49-1.5,4.6-2.94 c1.11-1.44,1.89-3.46,2.35-6.07c0.46-2.61,0.69-6.01,0.69-10.19v-12.73c0-4.31-0.23-7.77-0.69-10.38c-0.46-2.61-1.27-4.63-2.45-6.07 c-1.17-1.44-2.71-2.38-4.6-2.84c-1.89-0.46-4.28-0.69-7.15-0.69s-5.29,0.23-7.25,0.69c-1.96,0.46-3.52,1.4-4.7,2.84 c-1.18,1.44-1.99,3.43-2.45,5.97c-0.46,2.55-0.69,5.91-0.69,10.09v14.3c0,3.79,0.26,6.92,0.78,9.4c0.52,2.48,1.37,4.41,2.54,5.78 c1.18,1.37,2.71,2.32,4.6,2.84C445.39,181.89,447.78,182.15,450.65,182.15z M516.31,207.22V61.69h36.63v45.25 c2.61-1.83,5.88-3.26,9.79-4.31c3.92-1.04,8.88-1.57,14.89-1.57c12.54,0,22.16,2.81,28.89,8.42c6.72,5.62,10.09,14.63,10.09,27.03 v70.71h-36.63v-63.27c0-4.96-0.82-8.45-2.45-10.48c-1.63-2.02-5.19-3.04-10.67-3.04s-9.18,1.08-11.07,3.23 c-1.89,2.15-2.84,6.17-2.84,12.05v61.5H516.31z M673,76.77c0,2.74-0.29,5.13-0.88,7.15c-0.59,2.03-1.63,3.69-3.13,4.99 c-1.5,1.31-3.56,2.29-6.17,2.94c-2.61,0.65-5.94,0.98-9.99,0.98c-7.97,0-13.32-1.27-16.06-3.82c-2.74-2.55-4.11-6.63-4.11-12.24 c0-5.48,1.37-9.56,4.11-12.24c2.74-2.67,8.1-4.02,16.06-4.02c7.96,0,13.32,1.34,16.06,4.02C671.63,67.21,673,71.29,673,76.77z M634.61,104.19h36.63v103.03h-36.63V104.19z M221.61,101.71c-1.89-7.63-5.22-13.95-9.98-18.98c-4.76-5.02-11.15-8.77-19.17-11.25 c-8.02-2.48-18.16-3.72-30.42-3.72H101v139.3h62.02c11.87,0,21.75-1.34,29.64-4.01c7.89-2.67,14.18-6.58,18.88-11.74 c4.7-5.15,8.02-11.54,9.98-19.17c1.96-7.63,2.93-16.34,2.93-26.12v-17.41C224.45,118.3,223.5,109.34,221.61,101.71z M185.12,100.89 l-10.35,72.83c-0.7,4.91-4.9,8.55-9.86,8.55h-28.93l14.23-91.32h26.29C181.79,90.95,185.87,95.64,185.12,100.89z"/>
</svg>